<svg width="154" height="60" viewBox="0 0 154 60" fill="none" xmlns="http://www.w3.org/2000/svg">
<path d="M142.737 30.688L142.774 33.9836L142.554 33.4404C143.215 32.4263 144.12 31.6055 145.269 30.9777C146.419 30.35 147.727 30.0361 149.195 30.0361C150.687 30.0361 151.862 30.4587 152.717 31.3037C153.574 32.1487 153.928 33.2593 153.782 34.6355L152.387 46.0071H148.278L149.525 36.0841C149.574 35.3115 149.403 34.6959 149.012 34.2371C148.644 33.7543 148.009 33.5128 147.104 33.5128C146.272 33.5128 145.489 33.7663 144.755 34.2733C144.046 34.7562 143.459 35.4322 142.994 36.3014C142.554 37.1464 142.26 38.1243 142.114 39.2349L141.27 46.0071H137.16L139.032 30.688H142.737Z" fill="white"/>
<path d="M128.495 42.9288C129.033 42.9288 129.559 42.8323 130.073 42.6391C130.611 42.4459 131.125 42.2045 131.614 41.9148L133.082 45.0655C132.323 45.476 131.504 45.7899 130.623 46.0071C129.743 46.2486 128.887 46.3693 128.055 46.3693C126.391 46.3693 124.936 46.0795 123.688 45.5001C122.441 44.8965 121.463 44.0153 120.753 42.8564C120.068 41.6733 119.726 40.2368 119.726 38.5467C119.726 37.581 119.909 36.6032 120.276 35.6133C120.643 34.6234 121.193 33.7059 121.928 32.8609C122.661 32.0159 123.603 31.3399 124.753 30.8329C125.902 30.3017 127.248 30.0361 128.789 30.0361C129.694 30.0361 130.574 30.1569 131.43 30.3983C132.311 30.6397 133.106 31.0381 133.815 31.5934C134.525 32.1487 135.136 32.9092 135.65 33.875C136.164 34.8166 136.531 36.0237 136.751 37.4965L123.762 40.9007L123.101 38.5467L133.779 35.6495L132.348 36.1565C132.103 35.2632 131.65 34.5631 130.991 34.0561C130.354 33.5249 129.584 33.2593 128.679 33.2593C127.603 33.2593 126.71 33.4887 126 33.9474C125.291 34.382 124.753 34.9735 124.385 35.7219C124.019 36.4704 123.836 37.2551 123.836 38.0759C123.836 39.2349 124.068 40.1765 124.533 40.9007C124.997 41.6251 125.584 42.1441 126.294 42.458C127.003 42.7719 127.737 42.9288 128.495 42.9288Z" fill="white"/>
<path d="M97.3868 30.6881L97.3503 33.9837L97.2767 33.4405C98.0109 32.3781 98.916 31.5452 99.992 30.9416C101.069 30.3139 102.292 30 103.662 30C104.909 30 105.912 30.2656 106.67 30.7967C107.429 31.3037 107.869 32.1005 107.991 33.1869L107.881 33.2594C108.664 32.2937 109.581 31.509 110.633 30.9054C111.709 30.3018 112.81 30 113.935 30C115.451 30 116.602 30.4346 117.384 31.3037C118.192 32.1488 118.522 33.2473 118.375 34.5993L116.981 46.0072H112.871L114.119 36.1929C114.167 35.4444 114.082 34.8287 113.861 34.3459C113.642 33.8389 113.128 33.5612 112.321 33.5129C111.44 33.5129 110.645 33.7905 109.936 34.3459C109.227 34.877 108.639 35.5772 108.174 36.4463C107.735 37.2914 107.453 38.1967 107.331 39.1625L106.45 46.0072H102.34L103.552 36.1929C103.624 35.4444 103.527 34.8287 103.258 34.3459C103.013 33.8389 102.499 33.5612 101.717 33.5129C100.836 33.5129 100.041 33.7905 99.3321 34.3459C98.6465 34.877 98.0717 35.5772 97.607 36.4463C97.1666 37.2914 96.8856 38.1847 96.7634 39.1263L95.9191 46.0072H91.8097L93.6813 30.6881H97.3868Z" fill="white"/>
<path d="M78.5427 46.3331C77.4417 46.3573 76.3779 46.0676 75.3506 45.464C74.3475 44.8604 73.5282 44.0033 72.892 42.8927C72.2807 41.7579 71.9747 40.418 71.9747 38.8728C71.9747 37.7863 72.1706 36.724 72.5617 35.6858C72.9534 34.6477 73.5282 33.694 74.2861 32.8248C75.0446 31.9557 75.9618 31.2675 77.0385 30.7605C78.1145 30.2535 79.3255 30 80.671 30C81.747 30 82.6521 30.1449 83.3863 30.4346C84.1198 30.7001 84.7189 31.0623 85.1836 31.5211C85.6483 31.9556 86.0279 32.4506 86.3211 33.0059L85.9908 33.694L86.7986 30.6881H90.5777L88.706 46.0072H84.5967L85.0006 42.3495L85.2937 43.3273C85.1958 43.448 84.9763 43.6773 84.6338 44.0154C84.2914 44.3293 83.8388 44.6673 83.2762 45.0294C82.7135 45.3915 82.0286 45.7054 81.2208 45.971C80.4387 46.2366 79.5457 46.3573 78.5427 46.3331ZM80.8176 43.0738C81.4538 43.0738 82.053 42.9531 82.6156 42.7116C83.2026 42.4461 83.7287 42.0839 84.1934 41.6251C84.6581 41.1423 85.037 40.5749 85.3309 39.923L85.7341 36.5912C85.6118 35.9393 85.3552 35.3719 84.9634 34.8891C84.5723 34.3821 84.0712 33.9958 83.4592 33.7302C82.8479 33.4646 82.1631 33.3318 81.4045 33.3318C80.4508 33.3318 79.6437 33.5008 78.9831 33.8389C78.3468 34.1527 77.8213 34.5752 77.4053 35.1064C76.9892 35.6134 76.6839 36.1566 76.488 36.7361C76.3165 37.3155 76.2313 37.8708 76.2313 38.402C76.2313 39.3195 76.4144 40.1283 76.7812 40.8284C77.1729 41.5286 77.7112 42.0839 78.3961 42.4943C79.1053 42.8806 79.9125 43.0738 80.8176 43.0738Z" fill="white"/>
<path d="M66.5127 30.6881L66.2926 34.2734C66.8307 33.3318 67.4912 32.5471 68.274 31.9194C69.0568 31.2917 69.8761 30.8209 70.7326 30.507C71.5884 30.169 72.3469 30 73.0075 30L72.3097 34.0561C71.1601 33.9595 70.1085 34.1769 69.1548 34.708C68.2254 35.215 67.4667 35.8911 66.8797 36.7361C66.317 37.5811 65.9746 38.4744 65.8523 39.416L65.0084 46.0072H60.9355L62.8068 30.6881H66.5127Z" fill="white"/>
<path d="M48.4885 53.6487C47.1187 53.6487 45.9568 53.5038 45.0028 53.2141C44.0488 52.9243 43.2171 52.5381 42.5077 52.0552C41.7984 51.5965 41.1379 51.0774 40.5264 50.4979L43.315 47.7455C43.7798 48.2284 44.269 48.6389 44.7826 48.9769C45.3208 49.3391 45.9201 49.6167 46.5805 49.8099C47.2654 50.003 48.0237 50.0995 48.8555 50.0995C49.7605 50.0995 50.5433 49.9305 51.2037 49.5925C51.8887 49.2787 52.4512 48.8199 52.8916 48.2163C53.3319 47.6369 53.5887 46.9247 53.6621 46.0797L54.1391 42.277L54.3225 43.0013C53.8578 43.9671 53.0872 44.7759 52.0109 45.4278C50.9591 46.0797 49.6749 46.4056 48.1583 46.4056C46.7395 46.4056 45.4553 46.0917 44.3056 45.464C43.156 44.8121 42.2387 43.9067 41.5537 42.7478C40.8933 41.5648 40.563 40.1403 40.563 38.4744C40.563 37.6294 40.7343 36.724 41.0767 35.7583C41.4437 34.7683 41.994 33.8389 42.7279 32.9697C43.4618 32.1005 44.3912 31.3883 45.5164 30.8329C46.6417 30.2777 47.9748 30 49.5159 30C50.9836 30 52.2311 30.2535 53.2585 30.7605C54.3103 31.2675 55.0442 31.9073 55.46 32.6799L55.0564 33.3681L55.937 30.6881H59.7163L57.6615 46.8039C57.4903 48.2284 56.9888 49.4477 56.1572 50.4617C55.3499 51.4999 54.2736 52.2845 52.9282 52.8157C51.6073 53.371 50.1275 53.6487 48.4885 53.6487ZM50.2497 33.3318C49.2468 33.3318 48.3907 33.5008 47.6813 33.8389C46.9964 34.1769 46.4338 34.6114 45.9934 35.1426C45.5776 35.6737 45.2719 36.2411 45.0762 36.8447C44.8804 37.4241 44.7826 37.9674 44.7826 38.4744C44.7826 39.416 44.9783 40.2248 45.3697 40.9009C45.7611 41.5769 46.3114 42.108 47.0208 42.4943C47.7547 42.8806 48.6108 43.0738 49.5893 43.0738C50.2497 43.0738 50.8857 42.941 51.4972 42.6754C52.1332 42.4098 52.6959 42.0477 53.1851 41.5889C53.6988 41.1302 54.1146 40.5749 54.4326 39.923L54.8362 36.5912C54.6894 35.9393 54.4082 35.3719 53.9923 34.8891C53.5764 34.3821 53.0506 33.9958 52.4146 33.7302C51.7786 33.4646 51.0569 33.3318 50.2497 33.3318Z" fill="white"/>
<path d="M42.4775 25.8281L20.9263 49.2049H14.7755L35.6517 25.8281H42.4775Z" fill="white"/>
<path d="M26.7379 25.8281L5.86012 49.2049H0L21.4946 25.8281H26.7379Z" fill="white"/>
<path d="M33.8948 25.8281L13.0219 49.2049H7.61877L28.4917 25.8281H33.8948Z" fill="white"/>
<path d="M49.8021 0L27.8957 24.5291H22.6896L45.2483 0H49.8021Z" fill="white"/>
<path d="M56.9622 0L35.0558 24.5291H29.6527L51.5591 0H56.9622Z" fill="white"/>
<path d="M66.286 0L43.6723 24.5291H36.811L58.7175 0H66.286Z" fill="white"/>
<path d="M45.3579 0.00131226H66.394L87.2119 25.0898H66.2842L45.3579 0.00131226Z" fill="#EA1826"/>
<path d="M54.451 20.1076H52.363V22.1684H54.451V20.1076Z" fill="white"/>
<path d="M57.272 20.1074H55.1841V22.1683H57.272V20.1074Z" fill="white"/>
<path d="M54.451 22.7309H52.363V24.7918H54.451V22.7309Z" fill="white"/>
<path d="M57.272 22.7309H55.1841V24.7918H57.272V22.7309Z" fill="white"/>
<path opacity="0.8" d="M153.543 58.8959C153.406 59.0097 153.186 59.1235 152.884 59.2373C152.588 59.351 152.261 59.4399 151.9 59.5039C151.548 59.575 151.208 59.6106 150.884 59.6106C150.755 59.6106 150.567 59.5928 150.322 59.5573C150.085 59.5217 149.818 59.4613 149.523 59.3759C149.227 59.2835 148.928 59.1555 148.626 58.9919C148.323 58.8213 148.042 58.6043 147.783 58.3413C147.531 58.071 147.325 57.7439 147.167 57.3599C147.015 56.9759 146.94 56.5208 146.94 55.9946C146.94 55.6319 146.987 55.2515 147.08 54.8533C147.182 54.4479 147.336 54.0533 147.545 53.6693C147.761 53.2781 148.035 52.9297 148.366 52.6239C148.705 52.311 149.112 52.0621 149.587 51.8773C150.063 51.6923 150.618 51.6035 151.252 51.6106C151.699 51.6177 152.167 51.6781 152.657 51.7919C153.147 51.9057 153.59 52.087 153.986 52.3359L153.294 53.7439C153.013 53.559 152.682 53.4168 152.3 53.3173C151.918 53.2106 151.562 53.1608 151.23 53.1679C150.813 53.175 150.452 53.239 150.149 53.3599C149.847 53.4808 149.595 53.6408 149.393 53.8399C149.192 54.039 149.03 54.2595 148.907 54.5013C148.792 54.7359 148.709 54.9813 148.658 55.2373C148.608 55.4861 148.582 55.7208 148.582 55.9413C148.582 56.3181 148.651 56.6346 148.788 56.8906C148.925 57.1395 149.101 57.3457 149.317 57.5093C149.541 57.6657 149.771 57.7866 150.009 57.8719C150.247 57.9501 150.47 58.0035 150.679 58.0319C150.895 58.0603 151.061 58.0746 151.176 58.0746C151.349 58.0817 151.511 58.0746 151.662 58.0533C151.814 58.0248 151.947 57.9821 152.062 57.9253L152.181 56.9013H150.809L150.992 55.4186H153.964L153.543 58.8959Z" fill="white"/>
<path opacity="0.8" d="M144.816 59.8133H144.773L139.413 54.4373L139.845 54.6933L139.283 59.4933H137.694L138.71 51.3333H138.775L144.006 56.688L143.681 56.5387L144.254 51.6427H145.832L144.816 59.8133Z" fill="white"/>
<path opacity="0.8" d="M134.994 51.6427H136.616L135.643 59.4934H134.022L134.994 51.6427Z" fill="white"/>
<path opacity="0.8" d="M128.514 51.6427H133.486L133.302 53.1147H129.952L129.736 54.9281H132.632L132.437 56.4107H129.541L129.163 59.4934H127.542L128.514 51.6427Z" fill="white"/>
<path opacity="0.8" d="M122.186 59.5681C121.732 59.5681 121.278 59.4969 120.825 59.3547C120.378 59.2125 119.967 58.9921 119.593 58.6934C119.225 58.3876 118.93 58.0001 118.706 57.5307C118.483 57.0543 118.371 56.4889 118.371 55.8347C118.371 55.3654 118.458 54.8818 118.631 54.3841C118.811 53.8791 119.077 53.4169 119.43 52.9974C119.79 52.5707 120.241 52.2258 120.781 51.9627C121.329 51.6996 121.967 51.5681 122.694 51.5681C123.148 51.5681 123.599 51.6391 124.045 51.7814C124.499 51.9236 124.91 52.1476 125.277 52.4534C125.652 52.7521 125.95 53.1396 126.174 53.6161C126.398 54.0854 126.509 54.6471 126.509 55.3014C126.509 55.7707 126.419 56.2578 126.239 56.7627C126.066 57.2605 125.799 57.7227 125.439 58.1494C125.086 58.5689 124.636 58.9103 124.088 59.1734C123.548 59.4365 122.914 59.5681 122.186 59.5681ZM122.208 58.0747C122.698 58.0747 123.112 57.9929 123.451 57.8294C123.796 57.6587 124.074 57.4383 124.283 57.1681C124.491 56.8978 124.643 56.6063 124.737 56.2934C124.837 55.9805 124.888 55.6783 124.888 55.3867C124.888 55.0738 124.831 54.7787 124.715 54.5014C124.607 54.2241 124.452 53.9787 124.25 53.7654C124.048 53.5449 123.811 53.3743 123.537 53.2534C123.264 53.1254 122.961 53.0614 122.629 53.0614C122.14 53.0614 121.725 53.1467 121.386 53.3174C121.048 53.4809 120.774 53.6978 120.565 53.9681C120.363 54.2383 120.216 54.5298 120.122 54.8427C120.036 55.1556 119.992 55.4578 119.992 55.7494C119.992 56.0551 120.046 56.3503 120.154 56.6347C120.263 56.9121 120.414 57.1609 120.608 57.3814C120.803 57.5947 121.033 57.7654 121.3 57.8934C121.574 58.0143 121.876 58.0747 122.208 58.0747Z" fill="white"/>
<path opacity="0.8" d="M112.983 59.5681C112.529 59.5681 112.076 59.4969 111.622 59.3547C111.175 59.2125 110.765 58.9921 110.39 58.6934C110.022 58.3876 109.727 58.0001 109.503 57.5307C109.28 57.0543 109.168 56.4889 109.168 55.8347C109.168 55.3654 109.255 54.8818 109.428 54.3841C109.608 53.8791 109.874 53.4169 110.228 52.9974C110.588 52.5707 111.038 52.2258 111.578 51.9627C112.126 51.6996 112.764 51.5681 113.491 51.5681C113.945 51.5681 114.396 51.6391 114.842 51.7814C115.296 51.9236 115.707 52.1476 116.074 52.4534C116.449 52.7521 116.748 53.1396 116.971 53.6161C117.195 54.0854 117.306 54.6471 117.306 55.3014C117.306 55.7707 117.216 56.2578 117.036 56.7627C116.863 57.2605 116.596 57.7227 116.236 58.1494C115.883 58.5689 115.433 58.9103 114.885 59.1734C114.345 59.4365 113.711 59.5681 112.983 59.5681ZM113.005 58.0747C113.495 58.0747 113.909 57.9929 114.248 57.8294C114.594 57.6587 114.871 57.4383 115.08 57.1681C115.289 56.8978 115.44 56.6063 115.534 56.2934C115.634 55.9805 115.685 55.6783 115.685 55.3867C115.685 55.0738 115.628 54.7787 115.512 54.5014C115.404 54.2241 115.249 53.9787 115.047 53.7654C114.846 53.5449 114.608 53.3743 114.334 53.2534C114.061 53.1254 113.758 53.0614 113.426 53.0614C112.937 53.0614 112.522 53.1467 112.184 53.3174C111.845 53.4809 111.571 53.6978 111.362 53.9681C111.16 54.2383 111.013 54.5298 110.919 54.8427C110.833 55.1556 110.79 55.4578 110.79 55.7494C110.79 56.0551 110.844 56.3503 110.952 56.6347C111.06 56.9121 111.211 57.1609 111.406 57.3814C111.6 57.5947 111.83 57.7654 112.097 57.8934C112.371 58.0143 112.673 58.0747 113.005 58.0747Z" fill="white"/>
<path opacity="0.8" d="M105.374 51.6427C105.871 51.6427 106.303 51.7067 106.671 51.8347C107.046 51.9556 107.351 52.1334 107.589 52.3681C107.827 52.5956 107.992 52.8729 108.086 53.2001C108.187 53.5201 108.213 53.8827 108.162 54.2881C108.119 54.6081 108.029 54.9281 107.892 55.2481C107.755 55.5681 107.56 55.8596 107.308 56.1227C107.056 56.3859 106.739 56.5992 106.357 56.7627C105.982 56.9192 105.528 56.9974 104.996 56.9974H103.872L103.558 59.4934H101.991L102.964 51.6427H105.374ZM105.168 55.5041C105.485 55.5041 105.741 55.4401 105.936 55.3121C106.13 55.1769 106.274 55.0205 106.368 54.8427C106.462 54.6579 106.516 54.4907 106.53 54.3414C106.544 54.2561 106.544 54.1494 106.53 54.0214C106.523 53.8863 106.487 53.7512 106.422 53.6161C106.365 53.4809 106.26 53.3672 106.109 53.2747C105.957 53.1823 105.745 53.1361 105.471 53.1361H104.347L104.055 55.5041H105.168ZM106.519 56.4641L108.108 59.4934H106.282L104.639 56.5067L106.519 56.4641Z" fill="white"/>
<path opacity="0.8" d="M98.614 54.6667H66.193V56H98.614V54.6667Z" fill="white"/>
</svg>
